<svg width="60" height="58" viewBox="0 0 60 58" fill="none" xmlns="http://www.w3.org/2000/svg">
<path d="M20.8446 57.3705L15.6573 48.5259L5.53986 46.4761L6.56171 36.3108L0 28.6853L6.56171 21.0777L5.53986 10.9721L15.6573 8.86255L20.8446 0L30 4.03984L39.1554 0L44.4204 8.86255L54.52 10.9721L53.4383 21.0777L60 28.6853L53.4383 36.3108L54.52 46.4761L44.4204 48.5259L39.1554 57.3705L30 53.3307L20.8446 57.3705ZM21.9263 54.2211L30 50.9044L38.1873 54.2211L43.0338 46.6315L51.8247 44.5398L51.012 35.4741L57.0059 28.6853L51.012 21.8606L51.8247 12.7351L43.0338 10.7391L38.1514 3.14944L30 6.46615L21.8127 3.14944L16.9662 10.7391L8.17531 12.7351L8.98802 21.8606L2.99406 28.6853L8.98802 35.4741L8.17531 44.5757L16.9662 46.6315L21.9263 54.2211ZM26.7191 37.2251L42.1434 21.8964L40.3207 20.2649L26.7191 33.8307L19.6972 26.6175L17.8566 28.4402L26.7191 37.2251Z" fill="#EC6B2D"/>
</svg>
