<svg width="56" height="56" viewBox="0 0 56 56" fill="none" xmlns="http://www.w3.org/2000/svg">
<path d="M4.41354 24.8262L13.6088 28.7316C14.7265 26.4963 15.9553 24.2991 17.2952 22.1399C18.6351 19.9808 20.1073 17.9148 21.7119 15.942L15.7616 14.8117C15.4229 14.727 15.0948 14.7376 14.7773 14.8434C14.4598 14.9493 14.174 15.1292 13.92 15.3832L4.41354 24.8262ZM15.6028 30.3065L25.6936 40.3972C28.6613 38.9663 31.4893 37.3427 34.1776 35.5265C36.866 33.7103 39.2961 31.7163 41.4679 29.5445C45.2908 25.7216 48.1315 21.7992 49.9901 17.7773C51.8486 13.7554 52.9874 8.67297 53.4065 2.53008C47.2213 2.94918 42.1389 4.07743 38.1593 5.91482C34.1797 7.75216 30.2785 10.5823 26.4556 14.4052C24.2838 16.577 22.2898 19.0177 20.4736 21.7272C18.6573 24.4367 17.0338 27.2964 15.6028 30.3065ZM34.6349 21.2382C33.7458 20.3915 33.3013 19.3363 33.3013 18.0726C33.3013 16.8088 33.7458 15.7324 34.6349 14.8434C35.524 13.9544 36.6109 13.5098 37.8958 13.5098C39.1807 13.5098 40.2677 13.9544 41.1567 14.8434C42.0458 15.7324 42.4903 16.8088 42.4903 18.0726C42.4903 19.3363 42.0458 20.3915 41.1567 21.2382C40.2677 22.1273 39.1807 22.5718 37.8958 22.5718C36.6109 22.5718 35.524 22.1273 34.6349 21.2382ZM31.0469 51.5231L40.5534 42.0801C40.8074 41.8261 40.9768 41.5298 41.0614 41.1911C41.1461 40.8524 41.1672 40.5349 41.1249 40.2385L39.9311 34.2882C37.9583 35.8504 35.9028 37.3015 33.7648 38.6414C31.6269 39.9813 29.4191 41.2313 27.1415 42.3913L31.0469 51.5231ZM55.9911 0.00894632C56.1054 6.43549 55.1169 12.1699 53.0255 17.2121C50.9341 22.2543 47.7356 26.907 43.4301 31.1702C43.2057 31.3946 42.9919 31.619 42.7887 31.8433C42.5855 32.0677 42.3717 32.2709 42.1474 32.453L43.5826 39.6924C43.7053 40.4756 43.6534 41.2207 43.427 41.9277C43.2005 42.6347 42.8269 43.2486 42.3061 43.7693L30.1579 55.9366L24.6648 42.9564L12.9167 31.2718L0 25.6517L12.1037 13.567C12.6668 13.0462 13.3019 12.662 14.0089 12.4143C14.7159 12.1667 15.461 12.1254 16.2442 12.2905L23.5471 13.7257C23.7715 13.5437 23.9747 13.3436 24.1567 13.1256C24.3388 12.9076 24.542 12.7076 24.7664 12.5256C29.0719 8.22 33.7352 5.02893 38.7563 2.95235C43.7773 0.875769 49.5222 -0.105364 55.9911 0.00894632ZM5.40411 40.7529C6.69538 39.4193 8.25439 38.7705 10.0812 38.8065C11.908 38.8425 13.4882 39.5061 14.8218 40.7973C16.113 42.0886 16.7554 43.6476 16.7491 45.4743C16.7427 47.3012 16.0939 48.8814 14.8027 50.215C13.6258 51.3495 11.8551 52.3106 9.49065 53.098C7.12617 53.8854 4.23569 54.4379 0.81919 54.7555C1.1367 51.339 1.68599 48.4347 2.46706 46.0427C3.2482 43.6507 4.22721 41.8875 5.40411 40.7529ZM7.15683 42.6516C6.42864 43.4349 5.77244 44.6118 5.18823 46.1824C4.60402 47.7531 4.17644 49.5968 3.9055 51.7136C6.02225 51.4003 7.86597 50.9516 9.43666 50.3674C11.0073 49.7831 12.1842 49.1057 12.9674 48.3352C13.8015 47.5689 14.2216 46.6217 14.228 45.4934C14.2343 44.3652 13.8269 43.384 13.0056 42.55C12.1716 41.7287 11.1904 41.3318 10.0622 41.3593C8.93393 41.3868 7.96548 41.8176 7.15683 42.6516Z" fill="black"/>
</svg>
